<svg id="canvas" width="813.241" height="160.575" viewBox="179.277 256.312 813.241 160.575" preserveAspectRatio="xMidYMid meet" class="h-full w-full max-w-4xl text-primary transition-opacity duration-300 opacity-100" xmlns="http://www.w3.org/2000/svg"><g id="canvas-strokes"><path d="M 235.81,260.36 C 235.25 260.10, 234.47 259.59, 232.94 259.45 C 231.42 259.31, 230.44 259.15, 228.17 259.67 C 225.89 260.20, 224.42 260.44, 221.58 262.08 C 218.73 263.73, 217.19 264.87, 213.94 267.89 C 210.70 270.92, 208.82 272.82, 205.34 277.20 C 201.86 281.57, 199.82 284.28, 196.55 289.77 C 193.28 295.26, 191.51 298.61, 188.99 304.64 C 186.47 310.67, 185.31 314.11, 183.96 319.90 C 182.62 325.70, 182.24 328.70, 182.28 333.62 C 182.31 338.53, 182.76 340.82, 184.14 344.48 C 185.52 348.15, 186.69 349.65, 189.19 351.92 C 191.69 354.19, 193.36 354.92, 196.64 355.81 C 199.92 356.71, 201.90 356.74, 205.58 356.40 C 209.26 356.05, 211.35 355.51, 215.06 354.09 C 218.77 352.67, 220.74 351.62, 224.12 349.28 C 227.50 346.95, 229.18 345.45, 231.95 342.42 C 234.73 339.39, 236.02 337.58, 237.98 334.13 C 239.95 330.67, 240.72 328.68, 241.79 325.16 C 242.86 321.64, 243.12 319.73, 243.35 316.55 C 243.59 313.37, 243.41 311.79, 242.96 309.26 C 242.50 306.73, 241.94 305.62, 241.07 303.91 C 240.19 302.19, 239.57 301.63, 238.56 300.67 C 237.55 299.70, 236.91 299.43, 236.03 299.09 C 235.15 298.74, 234.61 298.81, 234.16 298.96 C 233.71 299.10, 233.51 299.47, 233.79 299.81 C 234.07 300.15, 235.15 300.61, 235.55 300.67 C 235.96 300.73, 236.10 300.35, 235.81 300.10 C 235.52 299.85, 234.43 299.57, 234.11 299.42 C 233.79 299.27, 233.87 299.30, 234.20 299.36 C 234.53 299.42, 234.99 299.36, 235.76 299.73 C 236.53 300.09, 237.14 300.28, 238.06 301.18 C 238.99 302.09, 239.57 302.60, 240.39 304.25 C 241.20 305.89, 241.71 306.96, 242.15 309.41 C 242.59 311.85, 242.79 313.38, 242.58 316.49 C 242.38 319.60, 242.16 321.50, 241.13 324.96 C 240.09 328.42, 239.35 330.40, 237.42 333.80 C 235.49 337.21, 234.22 339.00, 231.48 341.99 C 228.75 344.98, 227.09 346.46, 223.75 348.75 C 220.42 351.04, 218.47 352.07, 214.82 353.46 C 211.17 354.85, 209.11 355.36, 205.51 355.70 C 201.91 356.04, 200.00 356.00, 196.82 355.15 C 193.64 354.30, 192.04 353.62, 189.61 351.45 C 187.18 349.28, 186.03 347.86, 184.66 344.29 C 183.29 340.72, 182.81 338.47, 182.76 333.61 C 182.71 328.75, 183.07 325.76, 184.39 320.00 C 185.72 314.24, 186.88 310.80, 189.39 304.80 C 191.90 298.80, 193.67 295.46, 196.94 290.00 C 200.21 284.55, 202.26 281.85, 205.75 277.52 C 209.23 273.20, 211.13 271.31, 214.38 268.37 C 217.64 265.44, 219.20 264.39, 222.01 262.84 C 224.81 261.29, 226.21 261.14, 228.39 260.62 C 230.57 260.09, 231.44 260.21, 232.90 260.24 C 234.37 260.26, 235.14 260.70, 235.72 260.73 C 236.30 260.75, 236.36 260.61, 235.81 260.36" style="stroke: black; fill: black;"/><path d="M 293.50,301.66 C 293.03 301.45, 292.39 301.11, 291.08 301.01 C 289.78 300.92, 288.93 300.74, 286.99 301.18 C 285.04 301.63, 283.73 301.78, 281.38 303.23 C 279.03 304.67, 277.74 305.74, 275.24 308.40 C 272.73 311.05, 271.26 312.86, 268.85 316.50 C 266.45 320.14, 265.11 322.50, 263.21 326.60 C 261.31 330.69, 260.43 333.12, 259.36 336.96 C 258.28 340.80, 257.93 342.82, 257.84 345.78 C 257.74 348.75, 258.03 350.02, 258.89 351.77 C 259.74 353.53, 260.53 354.07, 262.11 354.55 C 263.68 355.03, 264.74 354.94, 266.77 354.16 C 268.80 353.39, 269.98 352.65, 272.24 350.67 C 274.50 348.69, 275.74 347.29, 278.06 344.25 C 280.38 341.22, 281.63 339.22, 283.85 335.48 C 286.06 331.74, 287.21 329.36, 289.12 325.56 C 291.02 321.76, 292.01 319.57, 293.35 316.49 C 294.69 313.41, 295.20 311.74, 295.81 310.16 C 296.43 308.58, 296.42 308.15, 296.43 308.59 C 296.43 309.04, 296.11 310.05, 295.83 312.37 C 295.56 314.69, 295.27 316.68, 295.06 320.19 C 294.84 323.71, 294.70 326.16, 294.74 329.95 C 294.78 333.75, 294.82 335.93, 295.24 339.18 C 295.65 342.42, 295.94 343.93, 296.81 346.18 C 297.68 348.43, 298.30 349.27, 299.59 350.41 C 300.88 351.55, 301.69 351.83, 303.27 351.88 C 304.85 351.93, 305.73 351.67, 307.50 350.67 C 309.27 349.67, 310.25 348.90, 312.13 346.87 C 314.01 344.84, 314.97 343.40, 316.90 340.52 C 318.83 337.63, 319.84 335.74, 321.77 332.44 C 323.69 329.14, 324.72 327.12, 326.52 324.01 C 328.33 320.91, 329.28 319.23, 330.79 316.93 C 332.30 314.64, 332.96 313.61, 334.07 312.55 C 335.17 311.48, 335.58 311.31, 336.31 311.62 C 337.03 311.93, 337.23 312.55, 337.69 314.10 C 338.14 315.64, 338.29 316.89, 338.57 319.34 C 338.85 321.80, 338.96 323.48, 339.11 326.38 C 339.25 329.27, 339.24 331.07, 339.29 333.82 C 339.35 336.58, 339.31 338.06, 339.38 340.16 C 339.46 342.25, 339.48 343.21, 339.68 344.28 C 339.87 345.36, 340.03 345.66, 340.37 345.55 C 340.72 345.43, 340.92 345.07, 341.40 343.70 C 341.88 342.34, 342.13 341.21, 342.78 338.72 C 343.44 336.24, 343.73 334.45, 344.68 331.27 C 345.64 328.10, 346.23 326.10, 347.56 322.84 C 348.89 319.59, 349.69 317.76, 351.34 314.99 C 352.99 312.23, 353.96 310.93, 355.81 309.00 C 357.65 307.07, 358.61 306.40, 360.57 305.34 C 362.54 304.28, 363.56 304.08, 365.64 303.72 C 367.72 303.36, 368.94 303.46, 370.96 303.55 C 372.99 303.63, 374.12 303.93, 375.76 304.13 C 377.39 304.33, 378.46 304.53, 379.15 304.55 C 379.84 304.56, 379.86 304.45, 379.21 304.21 C 378.56 303.97, 377.52 303.67, 375.88 303.35 C 374.24 303.04, 373.08 302.71, 371.00 302.62 C 368.93 302.53, 367.65 302.49, 365.49 302.90 C 363.33 303.30, 362.26 303.55, 360.20 304.65 C 358.14 305.76, 357.11 306.44, 355.20 308.42 C 353.29 310.41, 352.32 311.76, 350.64 314.58 C 348.96 317.40, 348.16 319.24, 346.78 322.52 C 345.41 325.80, 344.78 327.80, 343.75 330.98 C 342.72 334.16, 342.27 335.93, 341.65 338.43 C 341.02 340.94, 340.90 342.10, 340.63 343.49 C 340.36 344.89, 340.37 345.27, 340.29 345.42 C 340.22 345.57, 340.25 345.29, 340.25 344.23 C 340.25 343.18, 340.27 342.23, 340.29 340.14 C 340.30 338.06, 340.35 336.57, 340.33 333.81 C 340.31 331.04, 340.33 329.25, 340.19 326.33 C 340.06 323.41, 340.02 321.70, 339.67 319.20 C 339.32 316.70, 339.08 315.43, 338.44 313.83 C 337.80 312.24, 337.41 311.58, 336.46 311.23 C 335.50 310.88, 334.94 311.04, 333.66 312.08 C 332.38 313.12, 331.61 314.13, 330.05 316.44 C 328.49 318.75, 327.64 320.50, 325.85 323.62 C 324.06 326.74, 323.03 328.76, 321.10 332.05 C 319.17 335.33, 318.13 337.20, 316.19 340.03 C 314.24 342.86, 313.21 344.21, 311.39 346.19 C 309.57 348.17, 308.69 348.93, 307.07 349.94 C 305.45 350.95, 304.69 351.22, 303.28 351.22 C 301.87 351.21, 301.17 350.99, 300.02 349.93 C 298.87 348.87, 298.33 348.08, 297.54 345.91 C 296.74 343.74, 296.45 342.26, 296.06 339.07 C 295.67 335.88, 295.59 333.71, 295.59 329.95 C 295.58 326.19, 295.81 323.76, 296.04 320.25 C 296.27 316.75, 296.61 314.79, 296.72 312.45 C 296.83 310.10, 296.89 309.04, 296.60 308.54 C 296.32 308.03, 296.08 308.39, 295.29 309.92 C 294.49 311.44, 293.98 313.10, 292.63 316.17 C 291.27 319.24, 290.38 321.47, 288.51 325.26 C 286.63 329.05, 285.47 331.42, 283.26 335.13 C 281.04 338.83, 279.77 340.81, 277.45 343.78 C 275.12 346.74, 273.81 348.03, 271.62 349.96 C 269.42 351.88, 268.33 352.60, 266.46 353.40 C 264.59 354.21, 263.67 354.35, 262.27 353.97 C 260.87 353.60, 260.18 353.14, 259.45 351.51 C 258.72 349.88, 258.50 348.69, 258.61 345.81 C 258.72 342.94, 258.97 340.93, 260.00 337.14 C 261.04 333.35, 261.91 330.92, 263.80 326.87 C 265.68 322.82, 267.02 320.46, 269.43 316.88 C 271.83 313.30, 273.32 311.52, 275.82 308.96 C 278.32 306.40, 279.63 305.46, 281.91 304.10 C 284.19 302.73, 285.38 302.60, 287.21 302.14 C 289.04 301.68, 289.82 301.83, 291.06 301.80 C 292.31 301.78, 292.94 302.06, 293.43 302.03 C 293.92 302.00, 293.97 301.86, 293.50 301.66" style="stroke: black; fill: black;"/><path d="M 408.39,308.59 C 408.08 308.29, 407.63 307.83, 406.66 307.40 C 405.68 306.96, 405.04 306.58, 403.51 306.42 C 401.99 306.25, 400.96 306.06, 399.02 306.57 C 397.09 307.07, 395.93 307.50, 393.83 308.95 C 391.73 310.39, 390.51 311.47, 388.52 313.77 C 386.53 316.07, 385.42 317.66, 383.88 320.44 C 382.35 323.22, 381.56 324.99, 380.83 327.66 C 380.10 330.34, 379.94 331.84, 380.22 333.83 C 380.50 335.82, 380.98 336.66, 382.24 337.60 C 383.50 338.55, 384.52 338.72, 386.52 338.54 C 388.52 338.36, 389.85 337.93, 392.25 336.69 C 394.64 335.46, 396.03 334.44, 398.50 332.37 C 400.96 330.29, 402.31 328.88, 404.56 326.31 C 406.82 323.74, 407.98 322.11, 409.76 319.50 C 411.55 316.90, 412.36 315.38, 413.49 313.28 C 414.63 311.18, 414.98 310.08, 415.43 309.01 C 415.88 307.93, 415.82 307.54, 415.74 307.91 C 415.66 308.27, 415.34 308.83, 415.03 310.83 C 414.73 312.82, 414.50 314.37, 414.23 317.89 C 413.96 321.41, 413.87 323.74, 413.69 328.42 C 413.51 333.11, 413.47 335.95, 413.32 341.31 C 413.17 346.67, 413.17 349.67, 412.96 355.24 C 412.75 360.80, 412.69 363.78, 412.26 369.11 C 411.84 374.44, 411.62 377.13, 410.83 381.89 C 410.04 386.65, 409.56 388.97, 408.33 392.89 C 407.10 396.82, 406.35 398.62, 404.69 401.53 C 403.02 404.43, 402.02 405.62, 400.01 407.42 C 398.00 409.23, 396.84 409.85, 394.62 410.55 C 392.40 411.25, 391.16 411.33, 388.92 410.91 C 386.68 410.48, 385.45 409.96, 383.41 408.43 C 381.38 406.90, 380.27 405.78, 378.75 403.24 C 377.23 400.70, 376.48 399.09, 375.81 395.72 C 375.14 392.34, 375.00 390.29, 375.41 386.38 C 375.81 382.48, 376.31 380.25, 377.83 376.19 C 379.35 372.14, 380.46 370.04, 383.01 366.12 C 385.55 362.19, 387.21 360.19, 390.56 356.55 C 393.91 352.92, 395.92 351.16, 399.77 347.94 C 403.62 344.73, 405.77 343.22, 409.79 340.48 C 413.82 337.75, 415.98 336.50, 419.89 334.26 C 423.79 332.03, 425.81 331.04, 429.33 329.31 C 432.84 327.58, 434.53 326.84, 437.45 325.60 C 440.37 324.36, 441.70 323.88, 443.93 323.11 C 446.15 322.34, 447.12 321.92, 448.56 321.77 C 450.01 321.61, 450.45 321.60, 451.15 322.34 C 451.85 323.08, 451.91 323.79, 452.07 325.47 C 452.24 327.16, 452.11 328.42, 451.99 330.77 C 451.87 333.12, 451.66 334.71, 451.50 337.23 C 451.33 339.75, 451.20 341.26, 451.17 343.37 C 451.14 345.48, 451.25 346.47, 451.36 347.78 C 451.47 349.08, 451.59 349.38, 451.72 349.89 C 451.85 350.41, 451.95 350.26, 452.03 350.35 C 452.11 350.43, 452.11 350.41, 452.12 350.31 C 452.13 350.21, 452.08 350.36, 452.08 349.84 C 452.08 349.33, 452.10 349.04, 452.11 347.75 C 452.13 346.46, 452.05 345.49, 452.15 343.40 C 452.25 341.32, 452.42 339.82, 452.61 337.31 C 452.80 334.79, 453.04 333.20, 453.10 330.81 C 453.16 328.42, 453.24 327.13, 452.93 325.36 C 452.61 323.58, 452.42 322.80, 451.53 321.96 C 450.65 321.11, 450.08 321.05, 448.51 321.13 C 446.94 321.21, 445.95 321.61, 443.67 322.37 C 441.40 323.13, 440.08 323.65, 437.16 324.93 C 434.23 326.20, 432.56 326.98, 429.05 328.75 C 425.54 330.52, 423.52 331.51, 419.61 333.77 C 415.70 336.03, 413.53 337.29, 409.49 340.04 C 405.46 342.80, 403.30 344.31, 399.43 347.54 C 395.57 350.77, 393.55 352.53, 390.17 356.19 C 386.79 359.84, 385.11 361.85, 382.53 365.81 C 379.95 369.76, 378.82 371.88, 377.26 375.98 C 375.69 380.08, 375.17 382.33, 374.73 386.31 C 374.29 390.29, 374.40 392.39, 375.06 395.86 C 375.71 399.34, 376.44 401.03, 378.00 403.68 C 379.57 406.34, 380.73 407.53, 382.89 409.13 C 385.04 410.74, 386.38 411.27, 388.77 411.70 C 391.17 412.13, 392.50 412.02, 394.85 411.28 C 397.20 410.54, 398.44 409.88, 400.53 408.00 C 402.61 406.11, 403.60 404.84, 405.27 401.86 C 406.94 398.87, 407.67 397.04, 408.89 393.06 C 410.10 389.09, 410.57 386.76, 411.34 381.97 C 412.12 377.19, 412.33 374.50, 412.75 369.15 C 413.18 363.81, 413.23 360.82, 413.46 355.25 C 413.68 349.69, 413.69 346.68, 413.87 341.32 C 414.05 335.96, 414.11 333.13, 414.36 328.46 C 414.62 323.79, 414.84 321.48, 415.15 317.97 C 415.46 314.46, 415.74 312.94, 415.90 310.92 C 416.06 308.91, 416.13 308.31, 415.94 307.88 C 415.75 307.45, 415.60 307.76, 414.95 308.75 C 414.31 309.74, 413.89 310.79, 412.70 312.84 C 411.52 314.89, 410.80 316.42, 409.04 319.01 C 407.28 321.59, 406.15 323.22, 403.92 325.75 C 401.70 328.28, 400.33 329.64, 397.90 331.65 C 395.47 333.67, 394.08 334.58, 391.78 335.80 C 389.49 337.02, 388.26 337.48, 386.43 337.74 C 384.59 338.01, 383.69 337.92, 382.60 337.12 C 381.50 336.32, 381.12 335.58, 380.95 333.74 C 380.78 331.90, 380.99 330.49, 381.74 327.92 C 382.49 325.35, 383.19 323.59, 384.70 320.89 C 386.20 318.19, 387.31 316.64, 389.26 314.41 C 391.20 312.19, 392.40 311.16, 394.40 309.78 C 396.40 308.40, 397.47 308.01, 399.28 307.53 C 401.08 307.05, 402.00 307.27, 403.42 307.40 C 404.83 307.52, 405.40 307.85, 406.36 308.16 C 407.32 308.47, 407.80 308.84, 408.21 308.93 C 408.61 309.02, 408.70 308.90, 408.39 308.59" style="stroke: black; fill: black;"/><path d="M 456.17,279.14 C 456.24 278.97, 456.19 278.72, 456.11 278.52 C 456.03 278.32, 455.92 278.18, 455.77 278.12 C 455.63 278.06, 455.48 278.07, 455.38 278.21 C 455.29 278.35, 455.21 278.58, 455.28 278.80 C 455.34 279.03, 455.54 279.26, 455.72 279.33 C 455.90 279.40, 456.09 279.30, 456.17 279.14" style="stroke: black; fill: black;"/><path d="M 554.97,281.57 C 554.87 282.27, 554.83 282.94, 554.79 285.09 C 554.75 287.24, 554.76 288.73, 554.77 292.33 C 554.78 295.92, 554.90 298.43, 554.85 303.06 C 554.79 307.70, 554.70 310.56, 554.51 315.50 C 554.32 320.43, 554.16 323.21, 553.90 327.75 C 553.63 332.29, 553.46 334.57, 553.19 338.20 C 552.93 341.82, 552.71 343.48, 552.56 345.88 C 552.41 348.28, 552.45 348.98, 552.46 350.19 C 552.48 351.41, 552.56 351.57, 552.63 351.94 C 552.70 352.31, 552.77 352.02, 552.82 352.04 C 552.86 352.05, 552.83 352.04, 552.84 352.02 C 552.85 352.00, 552.83 352.29, 552.87 351.93 C 552.91 351.56, 552.94 351.41, 553.03 350.21 C 553.11 349.01, 553.14 348.32, 553.31 345.93 C 553.48 343.54, 553.63 341.87, 553.87 338.24 C 554.11 334.62, 554.24 332.33, 554.49 327.78 C 554.74 323.24, 554.90 320.46, 555.11 315.52 C 555.32 310.58, 555.43 307.71, 555.54 303.07 C 555.64 298.44, 555.62 295.93, 555.63 292.33 C 555.63 288.73, 555.64 287.24, 555.58 285.08 C 555.51 282.93, 555.43 282.27, 555.31 281.57 C 555.19 280.86, 555.07 280.86, 554.97 281.57" style="stroke: black; fill: black;"/><path d="M 539.43,290.68 C 539.65 290.21, 539.55 289.47, 540.17 288.24 C 540.78 287.02, 541.11 286.15, 542.52 284.56 C 543.93 282.97, 544.83 281.85, 547.22 280.29 C 549.61 278.74, 551.29 277.90, 554.48 276.78 C 557.67 275.67, 559.67 275.18, 563.16 274.72 C 566.64 274.26, 568.62 274.15, 571.89 274.50 C 575.17 274.85, 576.91 275.29, 579.53 276.46 C 582.16 277.64, 583.43 278.50, 585.01 280.37 C 586.59 282.23, 587.14 283.39, 587.45 285.78 C 587.76 288.18, 587.51 289.60, 586.58 292.33 C 585.64 295.05, 584.70 296.65, 582.76 299.41 C 580.81 302.17, 579.30 303.69, 576.85 306.12 C 574.41 308.55, 572.73 309.72, 570.51 311.58 C 568.30 313.43, 567.05 314.20, 565.76 315.39 C 564.47 316.58, 564.02 316.91, 564.08 317.53 C 564.15 318.14, 564.63 318.17, 566.09 318.46 C 567.54 318.75, 568.80 318.68, 571.35 318.98 C 573.91 319.29, 575.72 319.30, 578.85 319.99 C 581.99 320.68, 583.96 321.13, 587.03 322.44 C 590.10 323.76, 591.77 324.62, 594.20 326.56 C 596.62 328.50, 597.74 329.70, 599.14 332.13 C 600.54 334.57, 601.03 335.98, 601.21 338.73 C 601.40 341.47, 601.17 342.97, 600.04 345.84 C 598.92 348.72, 597.96 350.29, 595.60 353.10 C 593.24 355.90, 591.59 357.37, 588.24 359.87 C 584.88 362.37, 582.76 363.65, 578.84 365.61 C 574.92 367.57, 572.61 368.47, 568.63 369.67 C 564.65 370.87, 562.48 371.31, 558.94 371.60 C 555.39 371.90, 553.63 371.78, 550.92 371.15 C 548.20 370.52, 547.00 369.95, 545.36 368.45 C 543.71 366.96, 543.32 365.68, 542.69 363.67 C 542.06 361.66, 542.22 360.26, 542.21 358.39 C 542.21 356.52, 542.64 355.16, 542.65 354.34 C 542.67 353.52, 542.54 353.47, 542.29 354.28 C 542.04 355.09, 541.49 356.45, 541.41 358.38 C 541.33 360.30, 541.20 361.80, 541.89 363.93 C 542.58 366.05, 543.09 367.40, 544.86 369.00 C 546.63 370.59, 547.92 371.24, 550.74 371.90 C 553.57 372.56, 555.38 372.61, 559.00 372.29 C 562.61 371.96, 564.79 371.50, 568.82 370.28 C 572.84 369.05, 575.16 368.14, 579.12 366.17 C 583.08 364.19, 585.23 362.93, 588.63 360.40 C 592.04 357.88, 593.72 356.42, 596.15 353.56 C 598.58 350.71, 599.60 349.11, 600.77 346.13 C 601.95 343.15, 602.21 341.55, 602.03 338.67 C 601.84 335.79, 601.31 334.27, 599.85 331.72 C 598.38 329.17, 597.20 327.94, 594.71 325.93 C 592.21 323.91, 590.49 323.04, 587.37 321.66 C 584.24 320.28, 582.26 319.78, 579.08 319.02 C 575.90 318.26, 574.06 318.11, 571.48 317.86 C 568.90 317.61, 567.61 317.84, 566.17 317.77 C 564.74 317.70, 564.30 317.88, 564.31 317.52 C 564.32 317.15, 564.85 316.97, 566.21 315.92 C 567.57 314.88, 568.86 314.14, 571.11 312.30 C 573.35 310.45, 574.98 309.19, 577.44 306.71 C 579.91 304.22, 581.44 302.71, 583.43 299.89 C 585.42 297.07, 586.43 295.45, 587.39 292.60 C 588.35 289.76, 588.59 288.23, 588.23 285.68 C 587.88 283.13, 587.28 281.85, 585.61 279.86 C 583.94 277.87, 582.60 276.94, 579.87 275.71 C 577.14 274.49, 575.34 274.08, 571.98 273.72 C 568.61 273.37, 566.61 273.49, 563.06 273.94 C 559.50 274.39, 557.48 274.87, 554.20 275.97 C 550.92 277.06, 549.15 277.84, 546.66 279.42 C 544.17 281.01, 543.20 282.19, 541.75 283.89 C 540.31 285.59, 539.98 286.58, 539.45 287.92 C 538.91 289.26, 539.07 290.05, 539.07 290.60 C 539.07 291.16, 539.21 291.15, 539.43 290.68" style="stroke: black; fill: black;"/><path d="M 621.04,278.18 C 620.94 278.86, 620.90 279.51, 620.87 281.58 C 620.84 283.64, 620.90 285.01, 620.89 288.51 C 620.87 292.01, 620.94 294.43, 620.79 299.07 C 620.65 303.72, 620.51 306.65, 620.17 311.73 C 619.83 316.80, 619.55 319.69, 619.09 324.47 C 618.62 329.24, 618.28 331.69, 617.84 335.61 C 617.41 339.52, 617.09 341.33, 616.91 344.04 C 616.73 346.75, 616.71 347.84, 616.94 349.14 C 617.17 350.45, 617.40 350.77, 618.06 350.56 C 618.73 350.35, 619.17 349.81, 620.27 348.11 C 621.36 346.40, 621.98 344.95, 623.54 342.03 C 625.09 339.10, 626.02 336.98, 628.03 333.50 C 630.03 330.02, 631.28 327.80, 633.57 324.65 C 635.85 321.49, 637.23 319.84, 639.47 317.71 C 641.70 315.58, 642.89 314.78, 644.75 314.00 C 646.61 313.22, 647.43 313.21, 648.77 313.81 C 650.11 314.41, 650.61 315.16, 651.44 317.01 C 652.28 318.87, 652.51 320.30, 652.95 323.10 C 653.40 325.91, 653.48 327.78, 653.66 331.03 C 653.83 334.28, 653.74 336.23, 653.83 339.35 C 653.92 342.48, 653.82 344.16, 654.11 346.66 C 654.39 349.17, 654.55 350.30, 655.25 351.88 C 655.95 353.45, 656.40 354.00, 657.61 354.55 C 658.81 355.11, 659.59 355.12, 661.28 354.65 C 662.98 354.19, 663.98 353.70, 666.08 352.24 C 668.19 350.78, 669.36 349.71, 671.80 347.35 C 674.25 345.00, 675.62 343.43, 678.29 340.47 C 680.96 337.51, 682.45 335.68, 685.14 332.56 C 687.83 329.43, 689.28 327.66, 691.72 324.86 C 694.17 322.05, 695.42 320.65, 697.39 318.52 C 699.35 316.38, 700.25 315.49, 701.54 314.18 C 702.84 312.87, 703.30 312.46, 703.84 311.97 C 704.38 311.48, 704.40 311.48, 704.24 311.72 C 704.09 311.96, 703.80 312.25, 703.09 313.16 C 702.38 314.06, 701.83 314.66, 700.70 316.24 C 699.58 317.81, 698.87 318.83, 697.47 321.04 C 696.08 323.24, 695.22 324.62, 693.73 327.26 C 692.23 329.90, 691.34 331.48, 689.99 334.24 C 688.65 337.01, 687.93 338.54, 687.00 341.07 C 686.07 343.59, 685.69 344.88, 685.35 346.87 C 685.02 348.85, 685.02 349.73, 685.32 350.99 C 685.63 352.25, 686.02 352.70, 686.87 353.16 C 687.73 353.62, 688.36 353.66, 689.60 353.29 C 690.83 352.92, 691.60 352.53, 693.05 351.31 C 694.49 350.10, 695.30 349.23, 696.83 347.22 C 698.36 345.20, 699.20 343.87, 700.69 341.23 C 702.19 338.58, 702.99 336.90, 704.30 333.99 C 705.61 331.09, 706.27 329.34, 707.24 326.71 C 708.21 324.07, 708.64 322.66, 709.15 320.81 C 709.65 318.97, 709.72 318.15, 709.76 317.47 C 709.80 316.78, 709.58 316.71, 709.36 317.40 C 709.13 318.08, 708.87 318.94, 708.63 320.89 C 708.40 322.85, 708.20 324.43, 708.18 327.18 C 708.16 329.93, 708.24 331.73, 708.54 334.64 C 708.84 337.54, 709.01 339.22, 709.67 341.70 C 710.34 344.18, 710.78 345.36, 711.86 347.05 C 712.93 348.75, 713.61 349.38, 715.04 350.17 C 716.47 350.96, 717.32 351.12, 719.00 351.00 C 720.68 350.87, 721.62 350.57, 723.44 349.53 C 725.27 348.50, 726.26 347.72, 728.12 345.81 C 729.99 343.90, 730.94 342.59, 732.78 339.99 C 734.62 337.39, 735.59 335.69, 737.31 332.81 C 739.03 329.94, 739.96 328.21, 741.40 325.61 C 742.83 323.02, 743.48 321.62, 744.48 319.84 C 745.49 318.06, 745.83 317.33, 746.43 316.71 C 747.03 316.09, 747.16 316.15, 747.48 316.75 C 747.80 317.34, 747.85 318.02, 748.05 319.70 C 748.24 321.39, 748.30 322.70, 748.46 325.17 C 748.62 327.65, 748.69 329.33, 748.83 332.07 C 748.98 334.81, 749.03 336.46, 749.17 338.89 C 749.30 341.31, 749.29 342.58, 749.50 344.20 C 749.72 345.82, 749.85 346.46, 750.25 346.99 C 750.65 347.52, 750.95 347.52, 751.51 346.85 C 752.07 346.18, 752.37 345.45, 753.06 343.63 C 753.75 341.82, 754.12 340.43, 754.98 337.77 C 755.85 335.11, 756.30 333.33, 757.39 330.32 C 758.48 327.31, 759.13 325.52, 760.45 322.72 C 761.76 319.92, 762.53 318.49, 763.98 316.33 C 765.43 314.17, 766.13 313.28, 767.69 311.93 C 769.25 310.58, 770.18 310.18, 771.77 309.58 C 773.35 308.97, 774.33 309.07, 775.62 308.92 C 776.92 308.77, 777.37 308.82, 778.25 308.84 C 779.12 308.87, 779.63 309.06, 779.99 309.04 C 780.35 309.02, 780.38 308.92, 780.04 308.76 C 779.71 308.60, 779.20 308.36, 778.30 308.24 C 777.40 308.11, 776.91 308.01, 775.54 308.13 C 774.18 308.25, 773.15 308.19, 771.48 308.83 C 769.81 309.46, 768.82 309.92, 767.17 311.33 C 765.53 312.73, 764.76 313.63, 763.25 315.83 C 761.74 318.04, 760.99 319.51, 759.63 322.34 C 758.28 325.17, 757.64 326.97, 756.49 329.98 C 755.33 332.99, 754.73 334.73, 753.84 337.40 C 752.96 340.06, 752.63 341.46, 752.08 343.30 C 751.53 345.14, 751.40 345.88, 751.09 346.58 C 750.79 347.29, 750.71 347.32, 750.55 346.83 C 750.39 346.34, 750.38 345.72, 750.31 344.13 C 750.23 342.53, 750.24 341.27, 750.18 338.84 C 750.11 336.42, 750.07 334.77, 749.97 332.02 C 749.86 329.27, 749.85 327.58, 749.65 325.09 C 749.45 322.59, 749.35 321.27, 748.98 319.55 C 748.62 317.83, 748.40 317.13, 747.83 316.50 C 747.26 315.86, 746.94 315.78, 746.13 316.37 C 745.32 316.95, 744.88 317.66, 743.77 319.42 C 742.66 321.18, 742.03 322.57, 740.59 325.16 C 739.14 327.75, 738.27 329.50, 736.56 332.36 C 734.85 335.22, 733.86 336.90, 732.02 339.45 C 730.19 342.00, 729.21 343.25, 727.41 345.11 C 725.60 346.97, 724.68 347.73, 722.99 348.75 C 721.29 349.78, 720.45 350.08, 718.93 350.24 C 717.41 350.40, 716.66 350.28, 715.38 349.56 C 714.10 348.84, 713.48 348.26, 712.52 346.64 C 711.57 345.03, 711.17 343.89, 710.59 341.47 C 710.00 339.05, 709.82 337.39, 709.60 334.54 C 709.38 331.69, 709.44 329.91, 709.46 327.19 C 709.49 324.48, 709.65 322.92, 709.71 320.97 C 709.78 319.03, 709.83 318.17, 709.77 317.45 C 709.71 316.73, 709.69 316.75, 709.40 317.38 C 709.12 318.00, 708.95 318.76, 708.33 320.56 C 707.71 322.36, 707.29 323.75, 706.32 326.36 C 705.34 328.97, 704.75 330.74, 703.45 333.61 C 702.16 336.49, 701.32 338.14, 699.83 340.74 C 698.34 343.33, 697.47 344.61, 695.98 346.58 C 694.50 348.54, 693.73 349.37, 692.40 350.57 C 691.07 351.77, 690.40 352.15, 689.35 352.57 C 688.29 352.99, 687.80 353.03, 687.12 352.69 C 686.44 352.35, 686.13 352.00, 685.94 350.86 C 685.74 349.73, 685.76 348.91, 686.15 347.02 C 686.54 345.12, 686.94 343.87, 687.88 341.40 C 688.81 338.92, 689.49 337.38, 690.83 334.65 C 692.17 331.93, 693.07 330.36, 694.59 327.75 C 696.10 325.15, 697.00 323.81, 698.41 321.64 C 699.82 319.46, 700.56 318.48, 701.64 316.88 C 702.72 315.28, 703.23 314.65, 703.80 313.63 C 704.37 312.60, 704.52 312.16, 704.48 311.76 C 704.44 311.36, 704.29 311.25, 703.60 311.63 C 702.91 312.01, 702.39 312.38, 701.03 313.65 C 699.67 314.92, 698.74 315.81, 696.78 317.95 C 694.81 320.10, 693.62 321.56, 691.18 324.39 C 688.75 327.22, 687.30 328.99, 684.61 332.10 C 681.93 335.22, 680.42 337.04, 677.74 339.96 C 675.05 342.88, 673.64 344.42, 671.19 346.71 C 668.75 349.00, 667.54 349.98, 665.51 351.42 C 663.48 352.86, 662.59 353.39, 661.06 353.91 C 659.52 354.43, 658.88 354.49, 657.84 354.03 C 656.81 353.57, 656.46 353.11, 655.89 351.61 C 655.32 350.12, 655.22 349.03, 654.99 346.57 C 654.76 344.12, 654.81 342.45, 654.73 339.33 C 654.65 336.21, 654.74 334.26, 654.59 330.99 C 654.43 327.71, 654.44 325.81, 653.96 322.94 C 653.47 320.08, 653.16 318.60, 652.17 316.66 C 651.18 314.73, 650.54 313.94, 649.01 313.28 C 647.47 312.62, 646.52 312.59, 644.50 313.37 C 642.48 314.14, 641.23 314.97, 638.92 317.14 C 636.61 319.30, 635.28 321.02, 632.96 324.21 C 630.64 327.40, 629.39 329.62, 627.33 333.09 C 625.26 336.56, 624.21 338.64, 622.65 341.55 C 621.09 344.47, 620.45 345.91, 619.52 347.67 C 618.58 349.42, 618.37 350.03, 617.95 350.31 C 617.54 350.60, 617.49 350.33, 617.44 349.09 C 617.38 347.85, 617.48 346.78, 617.69 344.10 C 617.90 341.41, 618.08 339.59, 618.48 335.67 C 618.87 331.76, 619.20 329.30, 619.66 324.52 C 620.11 319.74, 620.39 316.85, 620.76 311.77 C 621.12 306.68, 621.28 303.75, 621.48 299.10 C 621.68 294.45, 621.72 292.02, 621.75 288.51 C 621.78 285.01, 621.72 283.64, 621.65 281.57 C 621.58 279.50, 621.50 278.85, 621.38 278.17 C 621.26 277.50, 621.14 277.50, 621.04 278.18" style="stroke: black; fill: black;"/><path d="M 811.38,316.06 C 811.01 315.81, 810.46 315.43, 809.37 315.16 C 808.29 314.88, 807.63 314.46, 805.94 314.69 C 804.24 314.93, 803.03 315.07, 800.90 316.33 C 798.78 317.59, 797.55 318.60, 795.32 321.00 C 793.09 323.39, 791.76 325.14, 789.74 328.29 C 787.73 331.45, 786.62 333.50, 785.24 336.77 C 783.86 340.04, 783.26 341.92, 782.85 344.63 C 782.45 347.35, 782.57 348.64, 783.22 350.34 C 783.87 352.03, 784.57 352.62, 786.10 353.12 C 787.64 353.62, 788.75 353.58, 790.89 352.84 C 793.02 352.11, 794.32 351.41, 796.78 349.44 C 799.24 347.47, 800.58 346.14, 803.19 342.98 C 805.80 339.81, 807.25 337.85, 809.83 333.62 C 812.41 329.40, 813.75 326.79, 816.10 321.86 C 818.44 316.93, 819.59 314.02, 821.55 308.97 C 823.50 303.91, 824.41 301.11, 825.87 296.58 C 827.33 292.06, 827.97 289.80, 828.84 286.36 C 829.70 282.91, 829.98 281.23, 830.19 279.37 C 830.41 277.51, 830.24 276.89, 829.91 277.07 C 829.57 277.24, 829.16 277.89, 828.52 280.24 C 827.88 282.59, 827.49 284.56, 826.73 288.82 C 825.96 293.07, 825.45 296.09, 824.70 301.51 C 823.95 306.92, 823.52 310.34, 822.97 315.88 C 822.43 321.42, 822.12 324.43, 821.97 329.19 C 821.83 333.95, 821.84 336.19, 822.25 339.69 C 822.66 343.19, 823.05 344.60, 824.03 346.69 C 825.01 348.78, 825.72 349.40, 827.15 350.14 C 828.59 350.88, 829.52 350.89, 831.20 350.39 C 832.88 349.89, 833.84 349.32, 835.58 347.64 C 837.32 345.96, 838.21 344.74, 839.90 342.00 C 841.59 339.27, 842.46 337.41, 844.03 333.97 C 845.60 330.53, 846.39 328.29, 847.76 324.80 C 849.13 321.31, 849.92 319.16, 850.89 316.50 C 851.86 313.84, 852.20 312.47, 852.61 311.51 C 853.02 310.55, 852.99 310.65, 852.96 311.69 C 852.92 312.73, 852.65 314.04, 852.44 316.71 C 852.23 319.38, 852.07 321.57, 851.92 325.03 C 851.77 328.49, 851.63 330.69, 851.67 334.02 C 851.71 337.34, 851.73 339.07, 852.11 341.65 C 852.50 344.23, 852.80 345.32, 853.59 346.93 C 854.37 348.54, 854.89 349.10, 856.03 349.70 C 857.17 350.30, 857.90 350.34, 859.29 349.93 C 860.68 349.51, 861.49 349.00, 863.00 347.63 C 864.50 346.25, 865.31 345.23, 866.81 343.06 C 868.31 340.90, 869.09 339.40, 870.49 336.81 C 871.89 334.22, 872.64 332.56, 873.80 330.12 C 874.97 327.69, 875.52 326.20, 876.32 324.64 C 877.12 323.08, 877.38 322.42, 877.82 322.35 C 878.25 322.27, 878.29 322.85, 878.50 324.27 C 878.70 325.70, 878.64 327.01, 878.84 329.48 C 879.04 331.94, 879.08 333.77, 879.49 336.60 C 879.90 339.43, 880.16 341.14, 880.89 343.61 C 881.63 346.09, 882.09 347.27, 883.16 348.96 C 884.23 350.65, 884.88 351.30, 886.23 352.07 C 887.58 352.85, 888.41 353.01, 889.91 352.83 C 891.42 352.65, 892.24 352.32, 893.77 351.16 C 895.30 350.00, 896.12 349.17, 897.58 347.04 C 899.03 344.91, 899.78 343.45, 901.04 340.50 C 902.31 337.55, 902.92 335.62, 903.92 332.30 C 904.92 328.98, 905.38 327.01, 906.05 323.90 C 906.71 320.79, 906.92 319.17, 907.24 316.75 C 907.55 314.33, 907.51 313.31, 907.64 311.78 C 907.77 310.25, 907.81 309.85, 907.88 309.09 C 907.94 308.34, 907.99 308.24, 907.98 308.01 C 907.96 307.79, 907.92 307.78, 907.81 307.98 C 907.70 308.18, 907.62 308.28, 907.45 309.02 C 907.27 309.77, 907.14 310.18, 906.93 311.70 C 906.72 313.22, 906.73 314.23, 906.38 316.63 C 906.03 319.04, 905.85 320.63, 905.20 323.71 C 904.54 326.80, 904.10 328.77, 903.10 332.05 C 902.10 335.33, 901.45 337.24, 900.18 340.12 C 898.91 343.01, 898.14 344.41, 896.75 346.48 C 895.36 348.55, 894.62 349.35, 893.24 350.48 C 891.85 351.61, 891.15 351.92, 889.82 352.12 C 888.49 352.32, 887.78 352.20, 886.58 351.48 C 885.39 350.76, 884.79 350.17, 883.85 348.54 C 882.90 346.92, 882.48 345.77, 881.84 343.35 C 881.20 340.93, 881.02 339.23, 880.65 336.44 C 880.28 333.64, 880.28 331.83, 879.99 329.36 C 879.70 326.90, 879.63 325.58, 879.20 324.12 C 878.76 322.66, 878.51 322.05, 877.80 322.07 C 877.08 322.10, 876.63 322.73, 875.64 324.25 C 874.66 325.76, 874.08 327.25, 872.86 329.66 C 871.65 332.08, 870.96 333.75, 869.57 336.31 C 868.19 338.87, 867.38 340.33, 865.93 342.46 C 864.48 344.58, 863.71 345.58, 862.34 346.93 C 860.97 348.29, 860.27 348.80, 859.07 349.25 C 857.86 349.70, 857.27 349.71, 856.30 349.19 C 855.33 348.66, 854.88 348.17, 854.22 346.64 C 853.55 345.10, 853.30 344.05, 852.98 341.53 C 852.65 339.00, 852.58 337.30, 852.58 334.01 C 852.57 330.72, 852.77 328.53, 852.96 325.08 C 853.14 321.63, 853.43 319.45, 853.51 316.77 C 853.60 314.08, 853.64 312.74, 853.39 311.65 C 853.14 310.55, 852.93 310.40, 852.26 311.30 C 851.58 312.21, 851.05 313.52, 850.01 316.16 C 848.96 318.81, 848.36 321.02, 847.02 324.51 C 845.67 328.00, 844.88 330.23, 843.30 333.64 C 841.72 337.04, 840.79 338.85, 839.12 341.52 C 837.45 344.19, 836.55 345.34, 834.93 346.99 C 833.30 348.63, 832.49 349.20, 830.99 349.73 C 829.48 350.26, 828.69 350.30, 827.41 349.64 C 826.14 348.97, 825.53 348.42, 824.63 346.41 C 823.72 344.41, 823.31 343.06, 822.89 339.62 C 822.47 336.18, 822.40 333.94, 822.52 329.21 C 822.65 324.47, 822.95 321.45, 823.50 315.93 C 824.06 310.41, 824.51 306.99, 825.30 301.59 C 826.10 296.20, 826.68 293.19, 827.48 288.95 C 828.28 284.72, 828.80 282.79, 829.30 280.43 C 829.80 278.07, 829.92 277.37, 829.98 277.14 C 830.04 276.91, 829.98 277.47, 829.62 279.28 C 829.26 281.09, 829.03 282.76, 828.18 286.19 C 827.32 289.62, 826.77 291.90, 825.35 296.42 C 823.93 300.94, 823.02 303.74, 821.07 308.79 C 819.13 313.83, 817.97 316.73, 815.62 321.63 C 813.27 326.54, 811.93 329.14, 809.33 333.31 C 806.74 337.49, 805.27 339.44, 802.65 342.52 C 800.02 345.61, 798.62 346.83, 796.21 348.73 C 793.81 350.64, 792.59 351.29, 790.60 352.05 C 788.61 352.81, 787.64 352.93, 786.28 352.54 C 784.92 352.16, 784.32 351.68, 783.81 350.13 C 783.29 348.57, 783.26 347.37, 783.69 344.76 C 784.13 342.16, 784.64 340.29, 785.99 337.08 C 787.33 333.88, 788.43 331.83, 790.43 328.74 C 792.43 325.65, 793.80 323.94, 796.00 321.64 C 798.20 319.33, 799.41 318.42, 801.43 317.22 C 803.44 316.01, 804.52 315.89, 806.08 315.63 C 807.64 315.37, 808.18 315.76, 809.22 315.92 C 810.25 316.08, 810.82 316.40, 811.26 316.43 C 811.69 316.45, 811.76 316.31, 811.38 316.06" style="stroke: black; fill: black;"/><path d="M 942.64,321.35 C 942.39 321.02, 942.06 320.57, 941.19 320.01 C 940.31 319.45, 939.72 318.93, 938.27 318.57 C 936.83 318.21, 935.85 317.88, 933.95 318.20 C 932.05 318.53, 930.91 318.85, 928.78 320.19 C 926.64 321.53, 925.38 322.59, 923.28 324.89 C 921.19 327.18, 920.00 328.82, 918.31 331.66 C 916.62 334.51, 915.76 336.32, 914.84 339.11 C 913.91 341.91, 913.64 343.45, 913.70 345.63 C 913.77 347.81, 914.13 348.80, 915.16 350.01 C 916.19 351.23, 917.06 351.58, 918.85 351.72 C 920.64 351.85, 921.83 351.61, 924.10 350.69 C 926.37 349.77, 927.74 349.00, 930.20 347.11 C 932.66 345.22, 934.01 343.87, 936.40 341.25 C 938.78 338.62, 940.06 336.87, 942.14 333.99 C 944.22 331.10, 945.32 329.35, 946.79 326.82 C 948.26 324.30, 948.79 322.78, 949.47 321.36 C 950.14 319.94, 950.16 319.47, 950.15 319.72 C 950.15 319.97, 949.82 320.74, 949.43 322.61 C 949.04 324.48, 948.59 326.16, 948.19 329.08 C 947.80 332.00, 947.56 334.07, 947.47 337.23 C 947.38 340.39, 947.35 342.23, 947.74 344.88 C 948.12 347.52, 948.46 348.74, 949.40 350.46 C 950.33 352.19, 950.98 352.81, 952.42 353.51 C 953.86 354.22, 954.75 354.29, 956.59 354.00 C 958.42 353.71, 959.48 353.30, 961.60 352.06 C 963.73 350.82, 964.93 349.91, 967.21 347.80 C 969.49 345.68, 970.75 344.24, 973.00 341.49 C 975.25 338.74, 976.45 336.98, 978.46 334.05 C 980.48 331.12, 981.54 329.41, 983.09 326.83 C 984.64 324.25, 985.31 322.90, 986.23 321.16 C 987.15 319.42, 987.35 318.66, 987.68 318.13 C 988.01 317.60, 987.88 317.57, 987.88 318.51 C 987.87 319.46, 987.67 320.40, 987.66 322.87 C 987.64 325.34, 987.69 327.12, 987.80 330.87 C 987.91 334.62, 988.01 336.99, 988.20 341.63 C 988.40 346.27, 988.61 349.00, 988.76 354.05 C 988.91 359.11, 989.02 361.89, 988.96 366.92 C 988.90 371.94, 988.84 374.52, 988.45 379.16 C 988.07 383.80, 987.84 386.11, 987.04 390.13 C 986.24 394.15, 985.74 396.06, 984.45 399.27 C 983.17 402.49, 982.37 403.91, 980.63 406.20 C 978.89 408.50, 977.86 409.42, 975.75 410.75 C 973.64 412.08, 972.42 412.50, 970.06 412.84 C 967.70 413.19, 966.37 413.10, 963.96 412.48 C 961.55 411.85, 960.23 411.22, 958.01 409.71 C 955.79 408.20, 954.63 407.12, 952.86 404.92 C 951.09 402.72, 950.15 401.57, 949.16 398.70 C 948.18 395.84, 948.07 393.81, 947.93 390.58 C 947.80 387.36, 948.17 385.38, 948.49 382.58 C 948.80 379.77, 949.39 377.76, 949.52 376.54 C 949.66 375.32, 949.53 375.28, 949.16 376.46 C 948.78 377.65, 948.06 379.63, 947.64 382.46 C 947.22 385.30, 946.93 387.32, 947.07 390.62 C 947.22 393.92, 947.34 396.01, 948.36 398.98 C 949.38 401.95, 950.34 403.17, 952.16 405.47 C 953.99 407.77, 955.17 408.90, 957.49 410.48 C 959.80 412.05, 961.20 412.69, 963.74 413.33 C 966.28 413.96, 967.70 414.04, 970.18 413.65 C 972.67 413.27, 973.96 412.82, 976.17 411.42 C 978.38 410.02, 979.46 409.04, 981.24 406.66 C 983.02 404.28, 983.80 402.80, 985.08 399.52 C 986.35 396.23, 986.84 394.31, 987.63 390.24 C 988.41 386.18, 988.63 383.87, 989.00 379.21 C 989.37 374.54, 989.43 371.96, 989.50 366.92 C 989.56 361.89, 989.46 359.10, 989.33 354.04 C 989.20 348.97, 988.99 346.24, 988.86 341.61 C 988.73 336.97, 988.72 334.60, 988.68 330.85 C 988.65 327.10, 988.76 325.34, 988.69 322.86 C 988.63 320.38, 988.61 319.44, 988.36 318.45 C 988.11 317.46, 988.00 317.45, 987.43 317.92 C 986.87 318.38, 986.56 319.08, 985.54 320.77 C 984.52 322.46, 983.88 323.81, 982.33 326.37 C 980.79 328.94, 979.79 330.67, 977.80 333.59 C 975.81 336.51, 974.61 338.26, 972.36 340.96 C 970.12 343.67, 968.82 345.05, 966.57 347.10 C 964.32 349.16, 963.14 350.01, 961.11 351.23 C 959.09 352.46, 958.13 352.88, 956.45 353.22 C 954.77 353.56, 953.98 353.55, 952.70 352.93 C 951.42 352.31, 950.86 351.76, 950.05 350.13 C 949.24 348.49, 948.98 347.32, 948.67 344.75 C 948.36 342.18, 948.36 340.37, 948.50 337.27 C 948.64 334.16, 949.01 332.13, 949.36 329.23 C 949.72 326.32, 950.09 324.65, 950.27 322.74 C 950.46 320.82, 950.55 320.00, 950.28 319.67 C 950.01 319.33, 949.78 319.72, 948.92 321.06 C 948.06 322.40, 947.47 323.86, 945.98 326.35 C 944.49 328.84, 943.52 330.65, 941.48 333.51 C 939.44 336.38, 938.15 338.11, 935.78 340.68 C 933.41 343.25, 932.04 344.53, 929.63 346.36 C 927.22 348.18, 925.88 348.89, 923.74 349.82 C 921.59 350.74, 920.51 351.03, 918.89 350.99 C 917.27 350.95, 916.51 350.70, 915.63 349.62 C 914.75 348.55, 914.46 347.66, 914.48 345.62 C 914.49 343.58, 914.79 342.11, 915.72 339.41 C 916.64 336.71, 917.43 334.90, 919.09 332.12 C 920.74 329.35, 921.95 327.76, 924.00 325.54 C 926.04 323.32, 927.29 322.31, 929.31 321.04 C 931.33 319.76, 932.37 319.46, 934.12 319.16 C 935.86 318.86, 936.71 319.22, 938.04 319.53 C 939.37 319.85, 939.91 320.31, 940.78 320.73 C 941.66 321.15, 942.04 321.53, 942.42 321.65 C 942.79 321.77, 942.88 321.68, 942.64 321.35" style="stroke: black; fill: black;"/><path d="M 980.08,284.23 C 980.19 284.27, 980.35 284.14, 980.35 284.03 C 980.35 283.92, 980.18 283.70, 980.08 283.67 C 979.97 283.63, 979.81 283.76, 979.81 283.87 C 979.81 283.98, 979.97 284.20, 980.08 284.23" style="stroke: black; fill: black;"/></g></svg>